<?xml version="1.0" encoding="iso-8859-1"?>
<!-- Uploaded to: SVG Repo, www.svgrepo.com, Generator: SVG Repo Mixer Tools -->
<svg version="1.1" id="Layer_1" xmlns="http://www.w3.org/2000/svg" xmlns:xlink="http://www.w3.org/1999/xlink" 
	 viewBox="0 0 511.992 511.992" xml:space="preserve">
<path style="fill:#434A54;" d="M256.363,234.649c-5.891,0-10.672-4.781-10.672-10.671V10.672C245.691,4.781,250.472,0,256.363,0
	c5.89,0,10.671,4.781,10.671,10.672v213.306C267.034,229.868,262.253,234.649,256.363,234.649z"/>
<polygon style="fill:#FB6D51;" points="256.363,213.306 138.68,340.434 138.68,511.992 373.311,511.93 373.311,342.934 "/>
<rect x="224.366" y="383.966" style="fill:#434A54;" width="63.998" height="106.69"/>
<path style="fill:#ED5564;" d="M152.835,139.09c22.546,0,42.093,12.796,51.764,31.514c9.688-18.718,29.233-31.514,51.765-31.514
	c22.53,0,42.076,12.796,51.764,31.514c9.688-18.718,29.218-31.514,51.763-31.514c18.578,0,35.125,8.687,45.781,22.249v-1.359
	c0-82.451-66.842-149.308-149.308-149.308c-82.467,0-149.309,66.857-149.309,149.308v1.359
	C117.711,147.777,134.258,139.09,152.835,139.09z"/>
<g>
	<path style="fill:#646C77;" d="M106.68,373.277c-2.734,0-5.469-1.031-7.546-3.125c-4.156-4.156-4.156-10.905,0.016-15.062
		l149.683-149.332c4.172-4.156,10.921-4.156,15.077,0.016c4.172,4.172,4.156,10.922-0.016,15.094L114.211,370.184
		C112.133,372.246,109.414,373.277,106.68,373.277z"/>
	<path style="fill:#646C77;" d="M405.311,373.277c-2.734,0-5.469-1.031-7.547-3.125L248.816,220.853
		c-4.156-4.172-4.156-10.938,0.016-15.094s10.921-4.156,15.077,0.016l148.949,149.316c4.156,4.156,4.156,10.937-0.016,15.093
		C410.765,372.246,408.03,373.277,405.311,373.277z"/>
</g>
<path style="fill:#E8563F;" d="M383.983,511.992H128.008c-5.891,0-10.656-4.781-10.656-10.656c0-5.906,4.766-10.688,10.656-10.688
	h255.976c5.891,0,10.656,4.781,10.656,10.688C394.64,507.211,389.874,511.992,383.983,511.992z"/>
</svg>